<svg xmlns="http://www.w3.org/2000/svg" xmlns:xlink="http://www.w3.org/1999/xlink" width="2000" zoomAndPan="magnify" viewBox="0 0 1500 1499.999933" height="2000" preserveAspectRatio="xMidYMid meet" version="1.0"><rect x="-150" width="1800" fill="#ffffff" y="-149.999993" height="1799.99992" fill-opacity="1"/><rect x="-150" width="1800" fill="#000000" y="-149.999993" height="1799.99992" fill-opacity="1"/><path fill="#ffffff" d="M 219.765625 662.085938 C 208.464844 689.0625 176.890625 769.453125 177.402344 769.960938 C 177.675781 770.234375 185.382812 765.296875 194.523438 758.984375 C 203.664062 752.671875 212.054688 746.984375 213.160156 746.347656 C 214.269531 745.710938 221.238281 729.511719 228.644531 710.351562 L 242.117188 675.515625 L 286.136719 675.515625 L 292.722656 680.144531 C 302.230469 686.828125 306.726562 695.789062 306.824219 708.261719 C 306.894531 716.777344 306.265625 719.265625 302.667969 724.707031 C 297.175781 733.003906 292.253906 735.875 271.945312 742.625 C 217.597656 760.691406 182.777344 784.828125 159.3125 820.703125 C 151.867188 832.085938 140.269531 856.40625 138.121094 865.140625 L 137.09375 869.320312 L 207.660156 869.320312 C 251.625 869.320312 281.628906 868.703125 287.246094 867.679688 C 307.953125 863.910156 326.777344 849.734375 335.730469 831.167969 L 340.566406 821.140625 L 353.992188 842.570312 C 361.378906 854.355469 368.445312 865.199219 369.699219 866.660156 C 371.542969 868.8125 374.484375 869.320312 385.054688 869.320312 L 398.132812 869.320312 L 402.085938 862.859375 C 404.261719 859.308594 415.800781 840.667969 427.734375 821.441406 C 448.300781 788.296875 454.898438 777.578125 493.609375 714.40625 C 502.53125 699.84375 509.628906 687.726562 509.375 687.476562 C 508.769531 686.871094 407.9375 710.070312 353.507812 723.339844 L 330.191406 729.023438 L 331.089844 724.3125 C 333.371094 712.347656 333.789062 700.253906 332.144531 693.460938 C 327.742188 675.242188 317.320312 662.242188 300.433594 653.890625 L 288.835938 648.15625 L 257.433594 647.648438 L 226.03125 647.136719 Z M 1088.4375 692.738281 C 1085.296875 696.207031 1085.171875 704.191406 1088.210938 707.230469 C 1096.351562 715.371094 1109.738281 707.464844 1105.714844 696.890625 C 1103.09375 689.988281 1093.097656 687.585938 1088.4375 692.738281 M 1192.433594 693.960938 C 1188.257812 699.269531 1188.460938 702.953125 1193.183594 707.675781 C 1200.023438 714.515625 1210.5625 710.042969 1210.5625 700.308594 C 1210.5625 690.617188 1198.410156 686.367188 1192.433594 693.960938 M 552.011719 695.371094 C 551.382812 696.015625 550.871094 717.292969 550.871094 742.652344 L 550.871094 788.757812 L 574.824219 788.757812 C 601.460938 788.757812 607.136719 787.707031 613.59375 781.570312 C 619.730469 775.738281 622.3125 770.222656 622.3125 762.945312 C 622.3125 753.964844 618.738281 746.675781 612.539062 743.019531 L 607.175781 739.855469 L 612.464844 734.867188 C 617.402344 730.210938 617.753906 729.25 617.753906 720.414062 C 617.753906 708.511719 614.75 703.144531 605.625 698.726562 C 599.722656 695.863281 595.539062 695.3125 575.953125 694.796875 C 563.410156 694.46875 552.640625 694.726562 552.011719 695.371094 M 990.863281 698.828125 C 991.734375 702.78125 1016.203125 773.882812 1020.398438 784.640625 C 1022.042969 788.859375 1022.121094 788.878906 1034.472656 788.441406 L 1046.894531 788 L 1051.824219 773.558594 C 1054.535156 765.617188 1061.605469 745.167969 1067.535156 728.113281 C 1073.46875 711.058594 1078.320312 696.527344 1078.320312 695.8125 C 1078.320312 695.101562 1073.5625 694.515625 1067.75 694.515625 L 1057.175781 694.515625 L 1046.089844 728.683594 C 1039.992188 747.476562 1034.613281 762.867188 1034.136719 762.886719 C 1033.664062 762.902344 1028.429688 747.699219 1022.507812 729.097656 L 1011.738281 695.277344 L 989.886719 694.378906 Z M 572.152344 723.226562 L 572.152344 733.695312 L 581.152344 733.359375 C 592.941406 732.921875 597.992188 729.71875 597.992188 722.691406 C 597.992188 715.378906 593.6875 712.757812 581.691406 712.757812 L 572.152344 712.757812 Z M 632.511719 718.265625 C 630.785156 719.996094 631.285156 766.125 633.105469 772.679688 C 637.644531 789.03125 659.6875 795.699219 671.183594 784.203125 L 675.515625 779.875 L 675.515625 788.757812 L 695.332031 788.757812 L 694.921875 753.417969 L 694.515625 718.078125 L 685.394531 718.609375 C 680.378906 718.902344 675.976562 719.425781 675.613281 719.777344 C 675.25 720.125 674.800781 728.777344 674.617188 739.003906 C 674.429688 749.230469 674.210938 759.167969 674.136719 761.085938 C 673.796875 769.453125 661.820312 774.933594 654.902344 769.886719 C 652.25 767.949219 651.878906 765.222656 651.195312 742.90625 L 650.433594 718.078125 L 642.011719 717.632812 C 637.382812 717.386719 633.105469 717.671875 632.511719 718.265625 M 718.488281 720.304688 C 709.539062 724.363281 705.558594 731.125 706.398438 740.835938 C 707.3125 751.386719 714.140625 757.300781 728.40625 759.890625 C 739.460938 761.902344 745.433594 764.804688 745.433594 768.164062 C 745.433594 775 731.390625 777.753906 725.675781 772.039062 C 724.003906 770.367188 722.632812 768.316406 722.632812 767.480469 C 722.632812 766.628906 718.519531 765.957031 713.324219 765.957031 L 704.015625 765.957031 L 704.988281 770.820312 C 706.546875 778.617188 710.164062 782.703125 719.144531 786.816406 C 726.160156 790.027344 729.105469 790.542969 736.917969 789.914062 C 754.246094 788.523438 764.179688 780.011719 764.179688 766.554688 C 764.179688 754.8125 757.910156 749.648438 738.777344 745.640625 C 724.996094 742.75 721.640625 739.808594 726.542969 734.90625 C 730.011719 731.441406 739.773438 731.820312 743.15625 735.558594 C 745.269531 737.894531 747.835938 738.597656 754.222656 738.597656 L 762.535156 738.597656 L 761.558594 733.710938 C 760.273438 727.28125 754.277344 721.210938 747.082031 719.054688 C 738.34375 716.4375 725.796875 716.984375 718.488281 720.304688 M 791.796875 720.140625 C 777.953125 726.855469 772.488281 736.296875 772.324219 753.796875 C 772.183594 768.964844 776.679688 778.4375 787.082031 784.871094 C 805.773438 796.433594 831.503906 787.621094 834.59375 768.601562 C 835.390625 763.671875 835.152344 763.304688 830.527344 762.378906 C 821.542969 760.582031 818.402344 761.179688 816.964844 764.964844 C 814.105469 772.488281 807.109375 775.546875 799.464844 772.613281 C 792.148438 769.808594 789.167969 746.917969 795.082031 738.960938 C 800.582031 731.5625 814.230469 732.828125 816.265625 740.921875 C 817.136719 744.398438 817.890625 744.679688 826.359375 744.679688 L 835.515625 744.679688 L 834.625 739.195312 C 833.5 732.269531 830.53125 727.730469 823.714844 722.535156 C 816.375 716.933594 800.8125 715.765625 791.796875 720.140625 M 861.71875 720.199219 C 844.898438 727.988281 837.367188 749.992188 844.832031 769.535156 C 854.699219 795.378906 892.378906 797.050781 905.351562 772.222656 C 912.558594 758.425781 910.878906 739.0625 901.546875 728.4375 C 892.136719 717.71875 874.8125 714.136719 861.71875 720.199219 M 920.238281 744.054688 C 920.238281 773.511719 921.199219 777.859375 929.195312 784.589844 C 938.1875 792.15625 952.957031 791.457031 960.699219 783.101562 L 964.320312 779.195312 L 964.320312 788.757812 L 982.558594 788.757812 L 982.558594 719.1875 L 974.226562 718.144531 C 969.640625 717.574219 965.195312 717.535156 964.34375 718.0625 C 963.410156 718.640625 962.800781 727.988281 962.800781 741.796875 C 962.800781 763.957031 962.695312 764.679688 959.066406 768.308594 C 954.816406 772.558594 948.40625 773.121094 943.796875 769.648438 C 941.039062 767.570312 940.6875 765.082031 940 742.71875 L 939.238281 718.078125 L 929.738281 717.785156 L 920.238281 717.496094 Z M 1086.554688 718.710938 C 1086.207031 719.058594 1085.921875 734.960938 1085.921875 754.050781 L 1085.921875 788.757812 L 1105.738281 788.757812 L 1105.328125 753.542969 L 1104.921875 718.324219 L 1096.054688 718.203125 C 1091.175781 718.132812 1086.902344 718.363281 1086.554688 718.710938 M 1132.132812 720.214844 C 1125.925781 723.03125 1120.664062 728.847656 1118.761719 734.988281 C 1117.835938 737.964844 1118.425781 738.269531 1126.332031 738.925781 C 1133.824219 739.546875 1135.355469 739.1875 1138.464844 736.078125 C 1144.710938 729.832031 1157.363281 732.089844 1157.363281 739.449219 C 1157.363281 743.851562 1152.714844 746.195312 1143.964844 746.207031 C 1134.8125 746.222656 1126.667969 749.230469 1121.332031 754.5625 C 1116.785156 759.109375 1116.320312 760.414062 1116.320312 768.640625 C 1116.320312 779.050781 1119.101562 783.808594 1127.53125 787.804688 C 1136.726562 792.171875 1150.332031 790.085938 1155.816406 783.472656 C 1157.945312 780.902344 1158.117188 780.953125 1158.917969 784.378906 C 1159.675781 787.605469 1160.726562 788.050781 1168.539062 788.457031 L 1177.308594 788.914062 L 1176.835938 760.054688 L 1176.363281 731.191406 L 1171.804688 726.347656 C 1169.292969 723.683594 1165.042969 720.5625 1162.351562 719.410156 C 1155.289062 716.390625 1139.636719 716.804688 1132.132812 720.214844 M 1191.882812 718.265625 C 1191.289062 718.859375 1190.804688 735.859375 1190.804688 756.042969 C 1190.804688 795.316406 1190.460938 797.222656 1183.203125 798.152344 C 1179.722656 798.597656 1179.402344 799.277344 1179.402344 806.238281 L 1179.402344 813.839844 L 1187.917969 813.8125 C 1194.820312 813.789062 1197.460938 813 1201.867188 809.636719 C 1209.664062 803.695312 1210.703125 796.722656 1210.210938 753.796875 L 1209.804688 718.078125 L 1201.382812 717.632812 C 1196.75 717.386719 1192.476562 717.671875 1191.882812 718.265625 M 1238.121094 721.304688 C 1215.144531 732.753906 1213.203125 770.792969 1234.867188 785.128906 C 1242.011719 789.855469 1255.964844 791.585938 1264.433594 788.789062 C 1272.035156 786.28125 1280.34375 778.746094 1283.730469 771.292969 C 1287.523438 762.941406 1287.507812 744.621094 1283.699219 736.234375 C 1275.882812 719.027344 1255.855469 712.46875 1238.121094 721.304688 M 1298.21875 718.332031 C 1296.53125 720.019531 1297.101562 766.285156 1298.890625 772.726562 C 1303.457031 789.183594 1324.1875 795.554688 1336.335938 784.234375 C 1340.605469 780.257812 1341.285156 780.359375 1341.285156 784.960938 C 1341.285156 788.59375 1341.6875 788.757812 1350.433594 788.757812 L 1359.582031 788.757812 L 1359.171875 753.496094 L 1358.765625 718.234375 L 1349.644531 718.332031 L 1340.527344 718.425781 L 1339.765625 742.332031 C 1339.039062 765.171875 1338.847656 766.363281 1335.417969 769.136719 C 1330.410156 773.1875 1322.335938 772.949219 1319.332031 768.660156 C 1317.441406 765.964844 1316.964844 760.636719 1316.964844 742.25 L 1316.964844 719.21875 L 1312.214844 718.269531 C 1306.015625 717.027344 1299.492188 717.054688 1298.21875 718.332031 M 437.113281 730.265625 C 429.304688 732.210938 422.621094 734.097656 422.257812 734.460938 C 421.894531 734.824219 413.730469 748.371094 404.113281 764.5625 C 394.496094 780.757812 386.128906 794.507812 385.515625 795.117188 C 384.90625 795.730469 381.109375 790.730469 377.085938 784.003906 L 369.769531 771.777344 L 378.378906 757.351562 C 383.113281 749.417969 386.667969 742.609375 386.277344 742.222656 C 385.203125 741.144531 292.363281 763.765625 275.933594 769.109375 C 244.253906 779.40625 219.988281 793.402344 199.867188 812.972656 C 189.695312 822.867188 176.125 840.125 177.464844 841.464844 C 177.699219 841.703125 202.171875 841.976562 231.839844 842.074219 C 291.21875 842.269531 291.402344 842.246094 302.167969 832.792969 C 305.292969 830.050781 309.28125 825.007812 311.039062 821.585938 C 315.476562 812.921875 316.398438 796.464844 313.082031 785.054688 C 311.675781 780.222656 310.738281 776.089844 311 775.863281 C 311.703125 775.25 338.714844 767.609375 338.980469 767.945312 C 339.308594 768.359375 381.820312 837.710938 383.320312 840.28125 C 384.191406 841.773438 388.738281 835.457031 398.652344 819 C 406.402344 806.128906 421.597656 781.234375 432.421875 763.679688 C 457.636719 722.777344 455.59375 726.410156 453.261719 726.582031 C 452.1875 726.660156 444.921875 728.316406 437.113281 730.265625 M 869.230469 735.199219 C 864.511719 738.476562 862.476562 744.222656 862.476562 754.253906 C 862.476562 763.742188 862.875 765.070312 866.921875 769.117188 C 873.914062 776.109375 883.023438 774.726562 887.542969 765.988281 C 892.289062 756.8125 889.410156 737.46875 882.929688 734.980469 C 879.582031 733.699219 871.203125 733.832031 869.230469 735.199219 M 1245.195312 736.699219 C 1239.027344 743.769531 1237.550781 755.441406 1241.59375 765.125 C 1245.636719 774.800781 1256.304688 776.683594 1262.871094 768.882812 C 1266.214844 764.90625 1266.804688 762.734375 1266.804688 754.367188 C 1266.804688 744.050781 1264.15625 736.617188 1259.894531 734.980469 C 1255.128906 733.152344 1247.511719 734.042969 1245.195312 736.699219 M 572.148438 760.257812 L 572.144531 771.277344 L 583.929688 770.773438 C 597.921875 770.175781 601.03125 768.167969 601.03125 759.730469 C 601.03125 751.527344 597.144531 749.238281 583.214844 749.238281 L 572.152344 749.238281 Z M 1148.242188 758.691406 C 1139.300781 760.285156 1134.5625 763.328125 1134.5625 767.480469 C 1134.5625 774.933594 1148.167969 777.832031 1154 771.621094 C 1157.011719 768.417969 1159.941406 756.613281 1157.628906 757.019531 C 1157.066406 757.117188 1152.839844 757.871094 1148.242188 758.691406 M 984.632812 816.867188 C 984.105469 818.242188 984.40625 820.09375 985.296875 820.984375 C 987.613281 823.300781 992 821.183594 991.394531 818.042969 C 990.71875 814.542969 985.851562 813.699219 984.632812 816.867188 M 550.871094 836.640625 C 550.871094 856.148438 551.023438 857.160156 553.910156 857.160156 C 556.582031 857.160156 556.953125 856.148438 556.953125 848.800781 L 556.953125 840.441406 L 566.070312 840.441406 C 574.179688 840.441406 575.191406 840.101562 575.191406 837.398438 C 575.191406 834.699219 574.179688 834.359375 566.070312 834.359375 L 556.953125 834.359375 L 556.953125 822.199219 L 566.832031 822.199219 C 575.699219 822.199219 576.710938 821.886719 576.710938 819.160156 C 576.710938 816.359375 575.699219 816.121094 563.792969 816.121094 L 550.871094 816.121094 Z M 871.597656 836.640625 C 871.597656 856.148438 871.746094 857.160156 874.636719 857.160156 C 877.527344 857.160156 877.675781 856.148438 877.675781 836.640625 C 877.675781 817.132812 877.527344 816.121094 874.636719 816.121094 C 871.746094 816.121094 871.597656 817.132812 871.597656 836.640625 M 971.917969 836.640625 C 971.917969 856.148438 972.070312 857.160156 974.960938 857.160156 C 977.847656 857.160156 978 856.148438 978 836.640625 C 978 817.132812 977.847656 816.121094 974.960938 816.121094 C 972.070312 816.121094 971.917969 817.132812 971.917969 836.640625 M 637.511719 822.960938 C 637.511719 825.324219 636.652344 826.761719 635.234375 826.761719 C 633.980469 826.761719 632.953125 827.785156 632.953125 829.039062 C 632.953125 830.292969 633.980469 831.320312 635.234375 831.320312 C 637.042969 831.320312 637.511719 833.515625 637.511719 841.960938 C 637.511719 850.679688 638.078125 853.164062 640.644531 855.734375 C 644.25 859.339844 650.171875 859.132812 650.886719 855.378906 C 651.207031 853.691406 650.1875 852.667969 647.863281 852.335938 C 644.648438 851.882812 644.316406 850.984375 643.902344 841.582031 C 643.488281 832.109375 643.695312 831.320312 646.5625 831.320312 C 648.316406 831.320312 649.671875 830.324219 649.671875 829.039062 C 649.671875 827.773438 648.320312 826.761719 646.632812 826.761719 C 644.402344 826.761719 643.59375 825.746094 643.59375 822.960938 C 643.59375 820.171875 642.78125 819.160156 640.554688 819.160156 C 638.324219 819.160156 637.511719 820.171875 637.511719 822.960938 M 804.714844 822.960938 C 804.714844 825.324219 803.855469 826.761719 802.4375 826.761719 C 801.183594 826.761719 800.15625 827.785156 800.15625 829.039062 C 800.15625 830.292969 801.183594 831.320312 802.4375 831.320312 C 804.257812 831.320312 804.714844 833.589844 804.714844 842.632812 C 804.714844 852.601562 805.117188 854.230469 808.09375 856.3125 C 812.855469 859.648438 816.875 859.339844 816.875 855.640625 C 816.875 853.613281 815.863281 852.601562 813.835938 852.601562 C 811.085938 852.601562 810.796875 851.585938 810.796875 841.960938 C 810.796875 832.332031 811.085938 831.320312 813.835938 831.320312 C 815.523438 831.320312 816.875 830.304688 816.875 829.039062 C 816.875 827.773438 815.523438 826.761719 813.835938 826.761719 C 811.605469 826.761719 810.796875 825.746094 810.796875 822.960938 C 810.796875 820.171875 809.984375 819.160156 807.757812 819.160156 C 805.527344 819.160156 804.714844 820.171875 804.714844 822.960938 M 920.238281 822.960938 C 920.238281 825.324219 919.375 826.761719 917.957031 826.761719 C 916.703125 826.761719 915.679688 827.785156 915.679688 829.039062 C 915.679688 830.292969 916.703125 831.320312 917.957031 831.320312 C 919.761719 831.320312 920.238281 833.484375 920.238281 841.667969 C 920.238281 853.515625 922.109375 857.101562 928.550781 857.585938 C 934.46875 858.027344 935.828125 853.410156 930.195312 851.996094 C 926.539062 851.078125 926.320312 850.464844 926.320312 841.171875 C 926.320312 832.332031 926.632812 831.320312 929.359375 831.320312 C 931.046875 831.320312 932.398438 830.304688 932.398438 829.039062 C 932.398438 827.773438 931.046875 826.761719 929.359375 826.761719 C 927.128906 826.761719 926.320312 825.746094 926.320312 822.960938 C 926.320312 820.171875 925.507812 819.160156 923.277344 819.160156 C 921.046875 819.160156 920.238281 820.171875 920.238281 822.960938 M 1099.601562 822.960938 C 1099.601562 825.324219 1098.738281 826.761719 1097.320312 826.761719 C 1096.066406 826.761719 1095.042969 827.785156 1095.042969 829.039062 C 1095.042969 830.292969 1096.066406 831.320312 1097.320312 831.320312 C 1099.128906 831.320312 1099.601562 833.515625 1099.601562 841.960938 C 1099.601562 850.679688 1100.167969 853.164062 1102.734375 855.734375 C 1106.339844 859.339844 1112.261719 859.132812 1112.976562 855.378906 C 1113.296875 853.691406 1112.273438 852.667969 1109.949219 852.335938 C 1106.734375 851.882812 1106.402344 850.984375 1105.992188 841.582031 C 1105.550781 831.484375 1105.605469 831.320312 1109.410156 831.320312 C 1111.835938 831.320312 1113.28125 830.46875 1113.28125 829.039062 C 1113.28125 827.621094 1111.847656 826.761719 1109.480469 826.761719 C 1106.441406 826.761719 1105.679688 826 1105.679688 822.960938 C 1105.679688 820.171875 1104.871094 819.160156 1102.640625 819.160156 C 1100.410156 819.160156 1099.601562 820.171875 1099.601562 822.960938 M 592.261719 827.597656 C 590.367188 828.925781 588.871094 829.265625 588.871094 828.367188 C 588.871094 827.484375 587.503906 826.761719 585.832031 826.761719 C 582.996094 826.761719 582.792969 827.773438 582.792969 841.960938 C 582.792969 856.148438 582.996094 857.160156 585.832031 857.160156 C 588.582031 857.160156 588.871094 856.148438 588.871094 846.628906 C 588.871094 835.347656 590.929688 831.320312 596.691406 831.320312 C 598.71875 831.316406 599.566406 830.472656 599.242188 828.785156 C 598.554688 825.226562 596.21875 824.828125 592.261719 827.597656 M 610.652344 827.421875 C 608 828.59375 605.09375 830.929688 604.191406 832.617188 C 601.421875 837.789062 602.203125 848.707031 605.65625 853.097656 C 611.175781 860.109375 624.515625 859.847656 628.367188 852.652344 C 630.609375 848.460938 626.378906 846.640625 622.515625 850.136719 C 619.3125 853.035156 613.046875 853.367188 610.457031 850.777344 C 608.203125 848.523438 608.011719 842.917969 610.234375 844.289062 C 611.113281 844.835938 615.902344 844.808594 620.875 844.230469 C 629.550781 843.222656 629.914062 843.007812 629.914062 838.855469 C 629.914062 833.65625 624.515625 827.175781 619.273438 826.082031 C 617.183594 825.644531 613.304688 826.25 610.652344 827.421875 M 663.746094 826.28125 C 661.875 826.660156 659.3125 828.433594 658.054688 830.230469 C 656.015625 833.140625 656.027344 833.632812 658.152344 834.820312 C 659.75 835.714844 661.457031 835.316406 663.335938 833.613281 C 667.21875 830.101562 673.105469 831.171875 673.71875 835.5 C 674.132812 838.421875 673.511719 838.921875 669.464844 838.921875 C 663.261719 838.921875 656.226562 842.640625 654.976562 846.578125 C 652.726562 853.660156 662.65625 860.871094 670.03125 857.511719 C 671.90625 856.65625 675.21875 856.296875 677.386719 856.710938 L 681.328125 857.464844 L 680.523438 844.773438 C 679.660156 831.09375 677.796875 827.492188 670.953125 826.273438 C 668.863281 825.902344 665.621094 825.90625 663.746094 826.28125 M 697.742188 827.550781 C 695.550781 828.6875 693.753906 828.976562 693.753906 828.191406 C 693.753906 827.402344 692.386719 826.761719 690.714844 826.761719 C 687.875 826.761719 687.675781 827.773438 687.675781 841.960938 C 687.675781 856.148438 687.875 857.160156 690.714844 857.160156 C 693.460938 857.160156 693.753906 856.148438 693.753906 846.628906 C 693.753906 836.089844 695.824219 831.320312 700.398438 831.320312 C 704.457031 831.320312 705.914062 835.210938 705.914062 846.0625 C 705.914062 856.066406 706.207031 857.160156 708.890625 857.160156 C 711.546875 857.160156 711.914062 855.914062 712.3125 845.539062 C 712.660156 836.445312 713.332031 833.554688 715.414062 832.246094 C 717.347656 831.03125 718.800781 831.03125 720.734375 832.246094 C 722.816406 833.554688 723.492188 836.445312 723.839844 845.539062 C 724.234375 855.914062 724.601562 857.160156 727.257812 857.160156 C 729.96875 857.160156 730.234375 856.058594 730.234375 844.933594 C 730.234375 833.972656 729.847656 832.3125 726.503906 828.972656 C 722.167969 824.636719 720.425781 824.429688 714.449219 827.546875 C 711.882812 828.886719 709.363281 829.292969 708.371094 828.53125 C 704.867188 825.84375 701.609375 825.542969 697.742188 827.550781 M 744.636719 827.398438 C 735.886719 831.140625 733.277344 845.859375 739.984375 853.65625 C 742.988281 857.148438 744.886719 857.921875 750.464844 857.921875 C 759.722656 857.921875 767.480469 851.347656 761.109375 848.902344 C 759.554688 848.304688 758.03125 848.839844 757.234375 850.257812 C 755.4375 853.472656 747.976562 853.207031 744.910156 849.820312 C 740.257812 844.675781 741.789062 843.480469 753.035156 843.480469 L 763.675781 843.480469 L 763.675781 839.003906 C 763.675781 833.707031 758.417969 827.398438 753.035156 826.246094 C 750.945312 825.800781 747.167969 826.316406 744.640625 827.398438 M 780.015625 827.449219 C 777.714844 828.644531 775.835938 828.976562 775.835938 828.191406 C 775.835938 827.402344 774.46875 826.761719 772.796875 826.761719 C 769.957031 826.761719 769.753906 827.773438 769.753906 841.960938 C 769.753906 856.144531 769.957031 857.160156 772.796875 857.160156 C 775.542969 857.160156 775.835938 856.144531 775.835938 846.628906 C 775.835938 835.585938 777.898438 831.320312 783.238281 831.320312 C 788.089844 831.320312 789.515625 834.671875 789.515625 846.0625 C 789.515625 856.144531 789.792969 857.160156 792.554688 857.160156 C 795.339844 857.160156 795.597656 856.144531 795.597656 845.167969 C 795.597656 835.933594 794.984375 832.46875 792.9375 830.101562 C 789.214844 825.796875 784.902344 824.910156 780.015625 827.449219 M 829.761719 827.328125 C 824.3125 829.742188 821.4375 835.316406 821.4375 843.464844 C 821.4375 851.113281 826.347656 856.957031 833.769531 858.136719 C 838.402344 858.875 840.0625 858.292969 844.410156 854.410156 C 848.976562 850.328125 849.558594 848.941406 849.558594 842.121094 C 849.558594 835.925781 848.816406 833.699219 845.757812 830.6875 C 840.878906 825.886719 835.542969 824.765625 829.761719 827.328125 M 895.539062 827.449219 C 893.238281 828.644531 891.359375 828.976562 891.359375 828.191406 C 891.359375 827.402344 889.988281 826.761719 888.316406 826.761719 C 885.480469 826.761719 885.277344 827.773438 885.277344 841.960938 C 885.277344 856.148438 885.480469 857.160156 888.316406 857.160156 C 891.003906 857.160156 891.359375 856.140625 891.378906 848.421875 C 891.40625 836.515625 892.585938 832.96875 896.878906 831.894531 C 903.164062 830.316406 905.039062 833.542969 905.039062 845.945312 C 905.039062 856.148438 905.3125 857.160156 908.078125 857.160156 C 910.875 857.160156 911.117188 856.148438 911.117188 844.476562 C 911.117188 834.296875 910.59375 831.328125 908.457031 829.453125 C 904.246094 825.757812 900.050781 825.105469 895.539062 827.449219 M 948.167969 826.285156 C 937.910156 828.300781 933.738281 845.511719 941.601562 853.371094 C 943.734375 855.507812 947.890625 857.644531 950.835938 858.121094 C 955.171875 858.828125 957.035156 858.242188 960.632812 855.0625 C 964.332031 851.792969 964.703125 850.886719 962.832031 849.664062 C 961.285156 848.648438 959.832031 848.875 958.152344 850.398438 C 954.496094 853.707031 948.136719 853.121094 945.40625 849.222656 C 944.105469 847.363281 943.039062 845.410156 943.039062 844.886719 C 943.039062 844.359375 947.839844 843.925781 953.710938 843.925781 C 959.578125 843.925781 964.816406 843.488281 965.351562 842.953125 C 965.890625 842.417969 965.488281 839.1875 964.464844 835.773438 C 963.019531 830.941406 961.457031 829.082031 957.433594 827.402344 C 954.585938 826.210938 952.0625 825.332031 951.828125 825.445312 C 951.589844 825.558594 949.945312 825.9375 948.167969 826.285156 M 1005.902344 826.714844 C 1000.707031 828.863281 997.757812 834.421875 997.757812 842.074219 C 997.757812 853.769531 1006.90625 860.507812 1016.101562 855.585938 C 1018.652344 854.222656 1019.039062 854.527344 1019.039062 857.898438 C 1019.039062 863.785156 1012.621094 866.253906 1006.484375 862.730469 C 1003.078125 860.777344 1001.398438 860.519531 1000.179688 861.761719 C 997.296875 864.703125 1004.746094 869.320312 1012.367188 869.320312 C 1023.714844 869.320312 1025.121094 866.636719 1025.121094 844.976562 L 1025.121094 826.710938 L 1020.941406 826.945312 C 1018.640625 827.078125 1015.050781 826.773438 1012.960938 826.273438 C 1010.871094 825.777344 1007.695312 825.972656 1005.902344 826.714844 M 1041.058594 826.992188 C 1035.625 828.402344 1031.199219 835.089844 1031.199219 841.890625 C 1031.199219 855.410156 1044.691406 863.289062 1054.554688 855.53125 C 1061.378906 850.164062 1058.710938 845.148438 1051.808594 850.367188 C 1047.800781 853.402344 1042.832031 853.175781 1039.796875 849.820312 C 1035.097656 844.628906 1036.660156 843.480469 1048.417969 843.480469 L 1059.554688 843.480469 L 1058.875 838.539062 C 1057.601562 829.234375 1050.402344 824.574219 1041.058594 826.992188 M 1075.351562 826.683594 C 1074.136719 827.453125 1071.230469 827.699219 1068.890625 827.230469 L 1064.640625 826.378906 L 1064.640625 841.769531 C 1064.640625 856.148438 1064.839844 857.160156 1067.679688 857.160156 C 1070.398438 857.160156 1070.722656 856.148438 1070.722656 847.621094 C 1070.722656 837.355469 1073.453125 831.320312 1078.105469 831.320312 C 1082.957031 831.320312 1084.402344 834.660156 1084.402344 845.902344 C 1084.402344 856.277344 1085.425781 858.679688 1089.847656 858.679688 C 1090.96875 858.679688 1090.476562 832.140625 1089.320312 830.40625 C 1087.882812 828.257812 1082.144531 825.234375 1079.5625 825.261719 C 1078.460938 825.277344 1076.566406 825.914062 1075.351562 826.683594 M 1125.832031 826.746094 C 1121.570312 828.53125 1116.332031 836.917969 1116.332031 841.960938 C 1116.332031 847.402344 1121.699219 855.449219 1126.566406 857.296875 C 1132.234375 859.453125 1140.0625 857.742188 1142.867188 853.734375 C 1144.929688 850.792969 1144.929688 850.289062 1142.890625 849.148438 C 1141.414062 848.320312 1139.761719 848.703125 1138.234375 850.234375 C 1133.433594 855.03125 1123.921875 852.363281 1123.921875 846.214844 C 1123.921875 843.84375 1125.328125 843.480469 1134.5625 843.480469 L 1145.203125 843.480469 L 1145.203125 839.003906 C 1145.203125 830.066406 1134.328125 823.1875 1125.832031 826.746094 M 985.597656 841.960938 C 985.597656 856.148438 985.800781 857.160156 988.640625 857.160156 C 991.476562 857.160156 991.679688 856.148438 991.679688 841.960938 C 991.679688 827.773438 991.476562 826.761719 988.640625 826.761719 C 985.800781 826.761719 985.597656 827.773438 985.597656 841.960938 M 610.457031 833.144531 C 606.574219 837.027344 608.464844 838.921875 616.234375 838.921875 C 621.894531 838.921875 623.832031 838.351562 623.832031 836.691406 C 623.832031 832.191406 614.015625 829.585938 610.457031 833.144531 M 744.78125 833.707031 C 740.804688 837.6875 742.035156 838.921875 749.996094 838.921875 C 755.21875 838.921875 757.59375 838.300781 757.59375 836.945312 C 757.59375 831.550781 749.089844 829.402344 744.78125 833.707031 M 830.03125 834.101562 C 826.847656 837.621094 826.773438 847.078125 829.90625 850.210938 C 833.003906 853.308594 838.75 853.269531 841.355469 850.128906 C 842.484375 848.769531 843.410156 845.09375 843.410156 841.960938 C 843.410156 838.828125 842.484375 835.152344 841.355469 833.792969 C 838.628906 830.507812 833.148438 830.65625 830.03125 834.101562 M 945.425781 834.652344 C 942.960938 838.152344 942.96875 838.160156 950 838.628906 C 958.042969 839.167969 959.566406 838.335938 957.273438 834.667969 C 954.710938 830.574219 948.300781 830.566406 945.425781 834.652344 M 1006.226562 833.707031 C 1004.871094 835.066406 1003.839844 838.664062 1003.839844 842.03125 C 1003.839844 846.6875 1004.660156 848.507812 1007.640625 850.460938 C 1011.160156 852.765625 1011.71875 852.765625 1015.238281 850.460938 C 1018.195312 848.523438 1019.039062 846.679688 1019.039062 842.160156 C 1019.039062 833.0625 1011.707031 828.226562 1006.226562 833.707031 M 1039.75 833.625 C 1035.601562 837.777344 1036.914062 838.921875 1045.824219 838.921875 C 1054.34375 838.921875 1054.363281 838.910156 1052.113281 835.5 C 1049.324219 831.273438 1043.054688 830.324219 1039.75 833.625 M 1125.746094 833.144531 C 1121.863281 837.027344 1123.753906 838.921875 1131.523438 838.921875 C 1139.480469 838.921875 1140.714844 837.6875 1136.734375 833.707031 C 1133.898438 830.875 1128.304688 830.585938 1125.746094 833.144531 M 665.410156 844.988281 C 658.238281 847.882812 660.128906 853.089844 668.074219 852.332031 C 672.425781 851.917969 673.308594 851.183594 673.714844 847.660156 C 674.234375 843.144531 671.867188 842.382812 665.410156 844.988281 " fill-opacity="1" fill-rule="evenodd"/></svg>